<?xml version="1.0" standalone="no"?>
<!DOCTYPE svg PUBLIC "-//W3C//DTD SVG 20010904//EN"
 "http://www.w3.org/TR/2001/REC-SVG-20010904/DTD/svg10.dtd">
<svg version="1.0" xmlns="http://www.w3.org/2000/svg"
 width="690.000000pt" height="690.000000pt" viewBox="0 0 690.000000 690.000000"
 preserveAspectRatio="xMidYMid meet">
<metadata>
Created by potrace 1.14, written by Peter Selinger 2001-2017
</metadata>
<g transform="translate(0.000000,690.000000) scale(0.100000,-0.100000)"
fill="#000000" stroke="none">
<path d="M1610 5351 c-183 -60 -353 -296 -503 -698 -55 -147 -82 -190 -220
-356 -141 -169 -190 -239 -236 -339 -88 -187 -93 -374 -13 -522 40 -76 164
-200 266 -267 219 -145 495 -251 1096 -424 462 -132 451 -128 809 -317 919
-486 1487 -735 1906 -834 113 -27 132 -29 335 -28 467 2 807 91 1022 268 164
136 245 367 188 536 -88 260 -396 466 -725 486 -132 8 -208 34 -317 106 -164
110 -343 304 -613 663 -261 349 -282 390 -544 1085 -35 91 -89 219 -120 285
-117 244 -201 299 -372 245 -129 -40 -274 -143 -499 -354 l-135 -127 -110 6
c-124 7 -277 35 -357 66 -69 26 -134 75 -296 223 -256 232 -355 295 -474 302
-34 2 -74 0 -88 -5z m140 -216 c58 -29 131 -87 259 -204 155 -143 249 -218
319 -254 131 -69 300 -104 540 -114 l152 -6 148 144 c81 80 190 178 242 218
91 71 216 141 251 141 20 0 67 -70 105 -155 37 -84 114 -275 114 -285 0 -4
-62 -49 -139 -99 -134 -89 -161 -116 -161 -161 0 -53 49 -100 104 -100 14 0
77 35 146 81 67 44 124 79 125 77 2 -2 24 -55 48 -118 25 -63 52 -131 61 -151
l15 -37 -138 -91 c-134 -89 -161 -116 -161 -161 0 -53 49 -100 104 -100 14 0
76 34 145 80 67 44 126 80 131 80 5 0 22 -24 36 -52 15 -29 51 -88 80 -131 30
-43 54 -82 54 -85 0 -4 -74 -56 -164 -115 -158 -105 -186 -131 -186 -177 0
-53 49 -100 104 -100 16 0 92 44 198 115 l173 116 20 -28 c93 -128 281 -350
385 -454 148 -148 233 -214 355 -274 105 -52 186 -75 266 -75 74 0 189 -22
259 -50 181 -71 340 -236 340 -351 0 -79 -7 -91 -83 -136 -233 -135 -370 -169
-652 -160 -254 8 -473 60 -800 188 -414 162 -867 418 -1595 903 -602 400 -616
407 -1014 537 -472 154 -666 237 -816 350 -64 49 -140 129 -140 149 0 3 30 42
67 85 148 178 188 244 248 413 79 219 233 484 312 538 61 41 78 42 143 9z
m-747 -1357 c167 -124 363 -210 791 -350 468 -152 415 -125 1056 -548 489
-323 663 -431 930 -580 493 -275 955 -458 1298 -512 45 -7 82 -17 82 -22 0 -5
-65 -6 -157 -3 -118 4 -184 12 -263 30 -336 80 -877 310 -1543 658 -709 370
-640 341 -1122 480 -509 147 -789 249 -970 351 -311 176 -390 347 -274 592
l20 44 37 -41 c20 -22 72 -67 115 -99z"/>
</g>
</svg>
